<svg width="83" height="24" viewBox="0 0 83 24" fill="none" xmlns="http://www.w3.org/2000/svg">
<path d="M18.736 0.664V23H14.256V13.496H4.688V23H0.208V0.664H4.688V9.848H14.256V0.664H18.736ZM47.4975 0.664V23H43.0175V8.472L37.0335 23H33.6415L27.6255 8.472V23H23.1455V0.664H28.2335L35.3375 17.272L42.4415 0.664H47.4975ZM56.4068 0.664V23H51.9268V0.664H56.4068ZM74.625 0.664V4.28H65.313V10.008H72.449V13.56H65.313V23H60.833V0.664H74.625ZM79.7858 23.224C78.9751 23.224 78.3031 22.9787 77.7698 22.488C77.2578 21.976 77.0018 21.3467 77.0018 20.6C77.0018 19.8533 77.2578 19.2347 77.7698 18.744C78.3031 18.232 78.9751 17.976 79.7858 17.976C80.5751 17.976 81.2258 18.232 81.7378 18.744C82.2498 19.2347 82.5058 19.8533 82.5058 20.6C82.5058 21.3467 82.2498 21.976 81.7378 22.488C81.2258 22.9787 80.5751 23.224 79.7858 23.224Z" fill="#1A49A3"/>
</svg>
